<?xml version="1.0" encoding="UTF-8"?>
<svg id="Layer_2" data-name="Layer 2" xmlns="http://www.w3.org/2000/svg" viewBox="0 0 649.6 649.6">
  <defs>
    <style>
      .cls-1 {
        fill: #fff;
      }

      .cls-1, .cls-2 {
        stroke-width: 0px;
      }

      .cls-2 {
        fill: #00b894;
      }
    </style>
  </defs>
  <g id="Layer_1-2" data-name="Layer 1">
    <rect class="cls-2" width="649.6" height="649.6" rx="89.83" ry="89.83"/>
    <path class="cls-1" d="M342.53,268.87c32.13,0,64.26.34,96.38-.2,9.96-.17,15.53,3.9,17.64,12.84,1.55,6.55,2.8,13.43,2.57,20.11-.7,19.87-7.1,25.61-26.65,25.55-14.28-.04-28.56-.04-42.83.05-13.25.08-13.33.16-13.34,13.84-.05,49.66-.03,99.32-.07,148.98-.02,16.42-2.61,20.51-18.81,22.11-11.38,1.12-23.18.03-34.57-1.61-8.99-1.29-13.11-7.41-13.05-17.39.32-50.95.03-101.91-.06-152.87-.02-12.98-.03-13.02-12.84-13.04-17.2-.02-34.4-.17-51.59.17-7.6.15-13.02-2.96-14.86-9.9-2.21-8.33-4.35-17.1-4.05-25.59.64-18.14,6.66-23.03,24.63-23.02,30.5.02,61.01,0,91.51,0v-.03Z"/>
    <path class="cls-1" d="M366.03,221.53c-16.24-2.77-32.38-7.34-48.65-7.86-22.88-.74-46.24-.8-68.71,2.97-44.68,7.5-66.24,40.04-59.24,84.88,5.01,32.07,21.66,57.54,46.05,77.9,12.61,10.52,26.81,19.14,41.06,29.15-13.73,1.38-26.89-.15-39.69-4.52-58.47-19.96-106.16-92.34-100.33-153.54,3.29-34.59,22.32-59.31,53.37-73.78,41.7-19.42,84.86-20.16,128.04-5.24,22.15,7.66,43.96,31.48,48.08,50.03Z"/>
    <path class="cls-1" d="M405.6,212.26c-21.2-.13-37.53-16.74-37.36-38.01.17-20.61,17.45-37.37,38.43-37.25,20.63.11,37.38,17.27,37.4,38.3.02,20.6-17.14,37.09-38.47,36.96Z"/>
  </g>
</svg>