<svg version="1.2" xmlns="http://www.w3.org/2000/svg" viewBox="0 0 720 270" width="720" height="270">
	<title>Asset 11</title>
	<style>
		.s0 { fill: #00b894 } 
	</style>
	<g id="Layer_1-2">
		<g>
			<path class="s0" d="m346.79 191.15c-0.03-4.04-0.3-8.15-1.1-12.1-6.12-29.9-30.07-50.81-60.99-53.45-31.48-2.7-59.66 14.08-70.88 42.2-18.12 45.35 16.77 94.34 65.09 90.54 9.45-0.74 18.58-5.35 29.02-8.52 8.19 8.24 19.4 10.49 30.45 5.51 5.62-2.53 8.59-6.34 8.5-12.87-0.23-17.09 0.01-34.2-0.09-51.31zm-68.74 29.21c-15.57-0.06-27.52-12.24-27.36-27.89 0.14-15.25 12.28-27.22 27.52-27.12 15.11 0.09 27.49 12.45 27.4 27.31-0.1 15.75-12.05 27.75-27.56 27.7z"/>
			<path class="s0" d="m704.7 191.66c-0.01-3.2-0.15-6.44-0.65-9.59-5.75-35.4-35.05-58.37-71.88-56.47-35.2 1.84-62.37 28.72-64.37 63.71-2.3 40.2 29.8 72.41 69.75 68.93 9.45-0.82 18.56-5.36 28.91-8.52 7.33 7.76 18.03 10.27 28.81 6.07 6.13-2.4 9.66-6.22 9.54-13.46-0.32-16.88-0.05-33.78-0.11-50.67zm-68.31 28.91c-15.27 0.04-27.76-12.44-27.71-27.68 0.04-15.29 12.47-27.7 27.79-27.73 15.18-0.04 27.53 12.42 27.59 27.85 0.06 15.44-12.09 27.54-27.67 27.56z"/>
			<path class="s0" d="m147.57 96.92c21.17 0 42.34 0.22 63.5-0.13 6.56-0.11 10.23 2.57 11.63 8.46 1.02 4.32 1.85 8.85 1.69 13.25-0.46 13.09-4.67 16.87-17.56 16.83q-14.11-0.05-28.22 0.03c-8.73 0.05-8.78 0.1-8.79 9.12-0.03 32.72-0.02 65.43-0.05 98.15-0.01 10.82-1.72 13.51-12.39 14.57-7.5 0.74-15.27 0.02-22.78-1.06-5.92-0.85-8.64-4.88-8.6-11.46 0.21-33.57 0.02-67.14-0.04-100.72-0.01-8.55-0.02-8.58-8.46-8.59-11.33-0.01-22.67-0.11-33.99 0.11-5.01 0.1-8.58-1.95-9.79-6.52-1.45-5.49-2.87-11.27-2.67-16.86 0.42-11.95 4.39-15.17 16.23-15.16q30.14 0.02 60.29 0z"/>
			<path class="s0" d="m533.24 180.67c1.55 1.04 2.38 1.69 3.3 2.19 28.36 15.21 22.34 51.22 4.83 65.69-19.43 16.06-66.29 18.71-86.66-11.56-6.41-9.53-5.52-16.27 3.71-23.03 2.22-1.63 4.67-3.03 7.17-4.2 7.88-3.72 9.1-3.3 14.06 3.72 6.09 8.6 14.36 12.58 24.91 11.04 6.02-0.88 10.62-3.99 11.32-10.44 0.68-6.29-2.64-11.17-8.4-12.94-6.66-2.04-13.72-2.96-20.67-3.83-8.35-1.05-10.99-3.53-11.55-12.14-0.61-9.53 1.86-12.88 9.76-15.05 6.35-1.74 12.53-4.16 18.65-6.62 2.1-0.84 4.29-2.37 5.51-4.21 1.29-1.94 2.55-5.04 1.84-6.85-0.64-1.61-3.96-2.98-6.14-3.04-11.75-0.32-23.51-0.22-35.26-0.23-13.47-0.02-18.2-5.06-17.47-18.69 0.59-11.03 3.9-14.21 14.88-14.22q22.77-0.01 45.53 0c2.78 0 5.57-0.09 8.33 0.11 12.29 0.92 24.46 2.77 29.41 16.29 5.34 14.59 3.19 28.24-7.82 39.81-2.62 2.75-5.69 5.08-9.22 8.21z"/>
			<path class="s0" d="m163.06 65.74c-10.7-1.83-21.33-4.83-32.05-5.18-15.07-0.49-30.47-0.53-45.27 1.95-29.44 4.94-43.64 26.38-39.03 55.93 3.3 21.13 14.27 37.91 30.34 51.32 8.31 6.93 17.67 12.61 27.05 19.21-9.05 0.91-17.72-0.1-26.15-2.98-38.52-13.15-69.94-60.84-66.1-101.16 2.17-22.79 14.7-39.08 35.16-48.61 27.47-12.8 55.91-13.28 84.36-3.45 14.6 5.04 28.96 20.74 31.68 32.96z"/>
			<path class="s0" d="m410.31 173.08c0 23.72-0.22 47.44 0.14 71.15 0.11 7.18-2.99 10.61-9.4 12.26-8.73 2.25-17.32 2.21-25.81-1.01-4.24-1.61-6.35-4.49-6.35-9.26q0.06-73.73-0.13-147.44c-0.01-4.29 1.78-6.85 5.61-8.27 9.56-3.55 19.15-3.77 28.85-0.52 5.57 1.86 7.16 5.62 7.11 11.3-0.24 23.93-0.1 47.86-0.1 71.79q0.04 0 0.08 0z"/>
			<path class="s0" d="m189.12 59.63c-13.97-0.08-24.73-11.03-24.61-25.04 0.11-13.58 11.5-24.62 25.32-24.54 13.59 0.07 24.63 11.38 24.64 25.23 0.01 13.57-11.3 24.43-25.35 24.35z"/>
		</g>
	</g>
</svg>