<svg version="1.2" xmlns="http://www.w3.org/2000/svg" viewBox="0 0 699 252" width="699" height="252">
	<title>Logo_1</title>
	<style>
		.s0 { fill: #00b894 } 
	</style>
	<g id="Layer_1-2">
		<g>
			<path class="s0" d="m337.8 182.1c0-4-0.3-8.1-1.1-12.1-6.1-29.9-30.1-50.8-61-53.4-31.5-2.7-59.7 14.1-70.9 42.2-18.1 45.3 16.8 94.3 65.1 90.5 9.5-0.7 18.6-5.3 29-8.5 8.2 8.3 19.4 10.5 30.5 5.5 5.6-2.5 8.6-6.3 8.5-12.8-0.3-17.1 0-34.2-0.1-51.4zm-68.7 29.3c-15.6-0.1-27.6-12.3-27.4-27.9 0.1-15.3 12.3-27.3 27.5-27.2 15.1 0.1 27.5 12.5 27.4 27.4-0.1 15.7-12 27.7-27.5 27.7z"/>
			<path class="s0" d="m695.7 182.7c0-3.2-0.1-6.5-0.6-9.6-5.8-35.4-35.1-58.4-71.9-56.5-35.2 1.8-62.4 28.7-64.4 63.7-2.3 40.2 29.8 72.4 69.8 68.9 9.4-0.8 18.5-5.3 28.9-8.5 7.3 7.8 18 10.3 28.8 6.1 6.1-2.4 9.6-6.2 9.5-13.5-0.3-16.8 0-33.7-0.1-50.6zm-68.3 28.9c-15.3 0-27.8-12.5-27.7-27.7 0-15.3 12.4-27.7 27.8-27.7 15.1-0.1 27.5 12.4 27.6 27.8 0 15.4-12.1 27.6-27.7 27.6z"/>
			<path class="s0" d="m138.6 87.9c21.1 0 42.3 0.2 63.5-0.1 6.5-0.1 10.2 2.6 11.6 8.5 1 4.3 1.9 8.8 1.7 13.2-0.5 13.1-4.7 16.9-17.6 16.8q-14.1 0-28.2 0.1c-8.7 0-8.8 0.1-8.8 9.1q0 49 0 98.1c0 10.9-1.8 13.5-12.4 14.6-7.5 0.7-15.3 0-22.8-1.1-5.9-0.8-8.6-4.8-8.6-11.4 0.2-33.6 0-67.2 0-100.7 0-8.6-0.1-8.6-8.5-8.6-11.3 0-22.7-0.1-34 0.1-5 0.1-8.6-2-9.8-6.5-1.4-5.5-2.8-11.3-2.6-16.9 0.4-11.9 4.3-15.2 16.2-15.2q30.1 0.1 60.3 0z"/>
			<path class="s0" d="m524.2 171.7c1.6 1 2.4 1.7 3.3 2.2 28.4 15.2 22.4 51.2 4.9 65.6-19.5 16.1-66.3 18.8-86.7-11.5-6.4-9.5-5.5-16.3 3.7-23 2.2-1.7 4.7-3.1 7.2-4.2 7.9-3.8 9.1-3.3 14 3.7 6.1 8.6 14.4 12.6 25 11 6-0.9 10.6-4 11.3-10.4 0.7-6.3-2.7-11.2-8.4-13-6.7-2-13.7-2.9-20.7-3.8-8.3-1-11-3.5-11.5-12.1-0.6-9.6 1.8-12.9 9.7-15.1 6.4-1.7 12.6-4.1 18.7-6.6 2.1-0.8 4.3-2.4 5.5-4.2 1.3-1.9 2.5-5 1.8-6.9-0.6-1.6-3.9-2.9-6.1-3-11.8-0.3-23.5-0.2-35.3-0.2-13.4 0-18.2-5.1-17.4-18.7 0.5-11 3.9-14.2 14.8-14.2q22.8-0.1 45.6 0c2.7 0 5.5-0.1 8.3 0.1 12.3 0.9 24.5 2.7 29.4 16.3 5.3 14.6 3.2 28.2-7.8 39.8-2.6 2.7-5.7 5.1-9.2 8.2z"/>
			<path class="s0" d="m154.1 56.7c-10.7-1.8-21.4-4.8-32.1-5.1-15.1-0.5-30.5-0.6-45.3 1.9-29.4 4.9-43.6 26.4-39 55.9 3.3 21.2 14.3 38 30.3 51.4 8.4 6.9 17.7 12.6 27.1 19.2-9.1 0.9-17.7-0.1-26.2-3-38.5-13.2-69.9-60.9-66.1-101.2 2.2-22.8 14.7-39.1 35.2-48.6 27.5-12.8 55.9-13.3 84.4-3.4 14.6 5 28.9 20.7 31.6 32.9z"/>
			<path class="s0" d="m401.3 164.1c0 23.7-0.2 47.4 0.1 71.1 0.2 7.2-2.9 10.6-9.3 12.3-8.8 2.2-17.4 2.2-25.9-1-4.2-1.6-6.3-4.5-6.3-9.3q0.1-73.7-0.1-147.4c-0.1-4.3 1.7-6.9 5.6-8.3 9.5-3.5 19.1-3.8 28.8-0.5 5.6 1.9 7.2 5.6 7.1 11.3-0.2 23.9-0.1 47.9-0.1 71.8q0.1 0 0.1 0z"/>
			<path class="s0" d="m180.1 50.6c-13.9-0.1-24.7-11-24.6-25 0.1-13.6 11.5-24.6 25.3-24.6 13.6 0.1 24.7 11.4 24.7 25.3 0 13.5-11.3 24.4-25.4 24.3z"/>
		</g>
	</g>
</svg>